<?xml version="1.0"?>
<svg xmlns="http://www.w3.org/2000/svg" xmlns:xlink="http://www.w3.org/1999/xlink" version="1.1" id="Layer_1" x="0px" y="0px" width="512px" height="512px" viewBox="0 0 128 128" style="enable-background:new 0 0 128 128;" xml:space="preserve" class=""><g><g>
	<circle style="fill:#446C8C" cx="64" cy="64" r="64" data-original="#E16B5A" class="" data-old_color="#446c8c"/>
	<path style="fill:#26435A" d="M109.957,58.86c-0.21-1.392-1.416-2.366-2.874-2.016l-4.125,0.918   c-0.128-0.338-0.261-0.708-0.409-1.035c-0.13-0.342-0.264-0.699-0.414-1.031c-0.13-0.344-0.265-0.693-0.414-1.026   c-0.131-0.342-0.265-0.684-0.414-1.016c-0.131-0.344-0.266-0.686-0.416-1.019c-0.065-0.174-0.121-0.354-0.19-0.524   c-0.229-0.765-0.511-1.504-0.834-2.221c-0.132-0.344-0.267-0.685-0.416-1.018c-0.13-0.342-0.265-0.681-0.414-1.012   c-0.13-0.342-0.265-0.681-0.414-1.013c-0.13-0.343-0.265-0.683-0.415-1.016c-0.13-0.342-0.264-0.681-0.413-1.013   c-0.131-0.343-0.267-0.684-0.416-1.017c-0.129-0.34-0.262-0.676-0.411-1.006c-0.13-0.344-0.265-0.685-0.416-1.019   c-0.13-0.344-0.265-0.684-0.414-1.016c-0.131-0.342-0.265-0.681-0.414-1.013c-0.131-0.343-0.266-0.683-0.416-1.016   c-0.129-0.343-0.265-0.683-0.414-1.016c-0.129-0.341-0.265-0.68-0.414-1.011c-0.129-0.341-0.263-0.678-0.41-1.009   c-0.131-0.344-0.266-0.686-0.418-1.02c-0.129-0.343-0.264-0.683-0.414-1.016c-0.131-0.343-0.266-0.682-0.414-1.014   c-2.576-6.794-9.135-11.646-16.821-11.646c-9.558,0-17.376,7.493-17.942,16.909c-0.02-0.036-0.035-0.074-0.053-0.11   c-0.162-0.583-0.357-1.156-0.594-1.713c-0.175-0.413-0.367-0.818-0.573-1.214c-0.134-0.432-0.269-0.864-0.442-1.277   c-0.268-0.629-0.582-1.234-0.92-1.826C52.684,25.436,46.354,21,39,21c-0.001,0-0.001,0-0.001,0c-0.127,0-0.25,0.011-0.375,0.019   C28.874,21.222,21,29.202,21,39c0,1.905,0.307,3.737,0.857,5.46c0.302,1.062,0.699,2.083,1.18,3.06   c0.301,1.054,0.697,2.067,1.174,3.037c0.282,0.882,0.641,1.729,1.051,2.545c0.221,0.625,0.475,1.231,0.76,1.821   c0.217,0.72,0.484,1.416,0.785,2.096C25.247,57.122,24,58.416,24,59.999v0.512v0.512V65v0.512V66v0.023v0.488v0.512V82v0.512V83   v0.023v0.488v0.512V88v0.512V89l11.975,32.546C44.439,125.676,53.947,128,64,128c26.118,0,48.566-15.654,58.518-38.085   L109.957,58.86z" data-original="#D16354" class="active-path" data-old_color="#D16354"/>
	<g>
		<path style="fill:#263740;" d="M110,89c0,1.65-1.313,2.686-2.917,2.3l-19.166-4.6C86.313,86.314,85,84.65,85,83V65    c0-1.65,1.313-3.315,2.917-3.7l19.166-4.6C108.688,56.315,110,57.35,110,59V89z" data-original="#263740"/>
		<path style="fill:#1E2C33;" d="M107.083,56.7l-0.433,0.104C107.459,57.145,108,57.943,108,59v30c0,1.057-0.541,1.855-1.35,2.195    l0.433,0.104C108.688,91.686,110,90.65,110,89V59C110,57.35,108.688,56.315,107.083,56.7z" data-original="#1E2C33" class=""/>
		<path style="fill:#B3B3B3;" d="M86,88c0,1.65-1.35,3-3,3H27c-1.65,0-3-1.35-3-3V60c0-1.65,1.35-3,3-3h56c1.65,0,3,1.35,3,3V88z" data-original="#B3B3B3"/>
		<path style="fill:#999999;" d="M83,57h-3c1.65,0,3,1.35,3,3v28c0,1.65-1.35,3-3,3h3c1.65,0,3-1.35,3-3V60C86,58.35,84.65,57,83,57    z" data-original="#999999"/>
		<rect x="24" y="65" style="fill:#F5F5F5;" width="62" height="18" data-original="#F5F5F5"/>
		<rect x="83" y="65" style="fill:#E6E6E6;" width="3" height="18" data-original="#E6E6E6"/>
		<rect x="24" y="66" style="fill:#263740;" width="62" height="16" data-original="#263740"/>
		<rect x="83" y="66" style="fill:#1E2C33;" width="3" height="16" data-original="#1E2C33" class=""/>
		<path style="fill:#B3B3B3;" d="M39,57c-9.925,0-18-8.075-18-18s8.075-18,18-18s18,8.075,18,18S48.925,57,39,57z" data-original="#B3B3B3"/>
		<path style="fill:#B3B3B3;" d="M75.999,57C66.074,57,58,48.925,58,39s8.074-18,17.999-18C85.925,21,94,29.075,94,39    S85.925,57,75.999,57z" data-original="#B3B3B3"/>
		<path style="fill:#999999;" d="M75.999,21c-0.169,0-0.332,0.021-0.5,0.025C85.191,21.294,93,29.244,93,39    s-7.809,17.707-17.501,17.975C75.667,56.98,75.83,57,75.999,57C85.925,57,94,48.925,94,39S85.925,21,75.999,21z" data-original="#999999"/>
		<path style="fill:#999999;" d="M38.999,21c-0.169,0-0.332,0.021-0.5,0.025C48.191,21.294,56,29.244,56,39    s-7.809,17.707-17.501,17.975C38.667,56.98,38.83,57,38.999,57C48.925,57,57,48.925,57,39S48.925,21,38.999,21z" data-original="#999999"/>
		<circle style="fill:#E6E6E6;" cx="39" cy="39" r="16" data-original="#E6E6E6"/>
		<circle style="fill:#263740;" cx="39" cy="39" r="3" data-original="#263740"/>
		<path style="fill:#1E2C33;" d="M39,36c-0.171,0-0.337,0.023-0.5,0.05C39.917,36.289,41,37.514,41,39s-1.083,2.71-2.5,2.95    C38.663,41.977,38.829,42,39,42c1.656,0,3-1.343,3-3S40.656,36,39,36z" data-original="#1E2C33" class=""/>
		<circle style="fill:#E6E6E6;" cx="76" cy="39" r="16" data-original="#E6E6E6"/>
		<path style="fill:#CCCCCC;" d="M61,39c0-8.667,6.896-15.708,15.499-15.974c-0.168-0.005-0.331-0.025-0.5-0.025    c-8.835,0-15.999,7.164-15.999,16s7.164,16,15.999,16c0.169,0,0.332-0.02,0.5-0.025C67.896,54.709,61,47.667,61,39z" data-original="#CCCCCC"/>
		<path style="fill:#CCCCCC;" d="M24,39c0-8.667,6.896-15.708,15.499-15.974c-0.168-0.005-0.331-0.025-0.5-0.025    c-8.835,0-15.999,7.164-15.999,16s7.164,16,15.999,16c0.169,0,0.332-0.02,0.5-0.025C30.896,54.709,24,47.667,24,39z" data-original="#CCCCCC"/>
		<circle style="fill:#263740;" cx="76" cy="39" r="3" data-original="#263740"/>
		<path style="fill:#263740;" d="M66,91v4c0,1.1-0.9,2-2,2H46c-1.1,0-2-0.9-2-2v-4H66z" data-original="#263740"/>
		<path style="fill:#1E2C33;" d="M62,91v4c0,1.1-0.9,2-2,2h4c1.1,0,2-0.9,2-2v-4H62z" data-original="#1E2C33" class=""/>
		<path style="fill:#242424" d="M98,90c0,0.55-0.45,1-1,1l0,0c-0.55,0-1-0.45-1-1V59c0-0.55,0.45-1,1-1l0,0c0.55,0,1,0.45,1,1V90z" data-original="#242424" class=""/>
		<path style="fill:#242424" d="M95,90c0,0.55-0.45,1-1,1l0,0c-0.55,0-1-0.45-1-1V59c0-0.55,0.45-1,1-1l0,0c0.55,0,1,0.45,1,1V90z" data-original="#242424" class=""/>
		<path style="fill:#242424" d="M92,90c0,0.55-0.45,1-1,1l0,0c-0.55,0-1-0.45-1-1V59c0-0.55,0.45-1,1-1l0,0c0.55,0,1,0.45,1,1V90z" data-original="#242424" class=""/>
		<path style="fill:#263740;" d="M76.979,126.682L57.736,93.008c-0.547-0.958-1.771-1.293-2.729-0.744    c-0.003,0.002-0.005,0.004-0.008,0.006c-0.003-0.002-0.005-0.004-0.008-0.006c-0.958-0.549-2.182-0.214-2.729,0.744    l-16.305,28.531c1.201,0.586,2.426,1.132,3.667,1.645L55,96.281l17.773,31.104C74.189,127.191,75.596,126.966,76.979,126.682z" data-original="#263740"/>
		<path style="fill:#1E2C33;" d="M76,36c-0.171,0-0.337,0.023-0.5,0.05C76.917,36.289,78,37.514,78,39s-1.083,2.71-2.5,2.95    C75.663,41.977,75.829,42,76,42c1.656,0,3-1.343,3-3S77.656,36,76,36z" data-original="#1E2C33" class=""/>
	</g>
</g></g> </svg>
