<?xml version="1.0"?>
<svg xmlns="http://www.w3.org/2000/svg" xmlns:xlink="http://www.w3.org/1999/xlink" version="1.1" id="Layer_1" x="0px" y="0px" viewBox="0 0 512 512" style="enable-background:new 0 0 512 512;" xml:space="preserve" width="512px" height="512px" class=""><g><circle style="fill:#396688" cx="256" cy="256" r="256" data-original="#88C5CC" class="active-path" data-old_color="#386587"/><polygon style="fill:#CCCCCC;" points="412,216 100,216 256,108 " data-original="#CCCCCC" class=""/><rect x="100" y="216" style="fill:#B3B3B3;" width="312" height="188" data-original="#B3B3B3" class=""/><path style="fill:#FFFFFF;" d="M376,100c0-8.8-7.2-16-16-16H152c-8.8,0-16,7.2-16,16v204c0,8.8,7.2,16,16,16h208c8.8,0,16-7.2,16-16  V100z" data-original="#FFFFFF" class=""/><g>
	<polygon style="fill:#E6E6E6;" points="244,312 100,404 100,216  " data-original="#E6E6E6" class=""/>
	<polygon style="fill:#E6E6E6;" points="268,312 412,404 412,216  " data-original="#E6E6E6" class=""/>
</g><polygon style="fill:#F5F5F5;" points="412,404 100,404 256,296 " data-original="#F5F5F5" class=""/><circle style="fill:#26435A" cx="256" cy="192" r="52" data-original="#CC584C" class="" data-old_color="#CC584C"/><polygon style="fill:#FFFFFF;" points="240,168 281.58,192 240,216 " data-original="#FFFFFF" class=""/></g> </svg>
